<?xml version="1.0" encoding="utf-8"?>
<!-- Generator: Adobe Illustrator 19.0.1, SVG Export Plug-In . SVG Version: 6.00 Build 0)  -->
<svg version="1.1" id="Слой_1" xmlns="http://www.w3.org/2000/svg" xmlns:xlink="http://www.w3.org/1999/xlink" x="0px" y="0px"
	 viewBox="0 0 425.2 99.2" style="enable-background:new 0 0 425.2 99.2;" xml:space="preserve">
<style type="text/css">
	.st0{fill:#E35100;}
	.st1{fill:#271A0A;}
	.st2{fill:#191A1A;}
</style>
<g>
	<g>
		<g>
			<path class="st0" d="M37.9,59.5h-5.4L16.4,41.6v17.9h-6.3V30.7h5.4l16.1,17.9V30.7h6.3V59.5z"/>
			<path class="st0" d="M44,59.5V30.7h19.7V37h-13v4.8h11.7v6.3H50.7v5h13.5v6.3H44z"/>
			<path class="st0" d="M67.6,37v-6.3h26.6V37h-10v22.5h-6.7V37H67.6z"/>
		</g>
		<g>
			<path class="st1" d="M139.4,60.1v-1.6l4-2.3V41.6c0-2.4-0.5-3.9-1.4-5c-1.1-1.2-2.8-1.9-5.1-1.9c-1.9,0-3.3,0.2-5.4,0.6
				c0.6,1.6,0.8,3.2,0.8,5.3v15.5l4,2.2v1.7h-15.2v-1.6l3.9-2.3V41.7c0-5-2-6.9-6.9-6.9c-1.4,0-2.3,0.1-4.3,0.4v21l4.1,2.2v1.7
				h-16.5v-1.6l5.1-2.3V35.7l-5.2-1.6v-1.6l12.6-2.4v3.3c2.1-0.8,3.3-1.2,5.3-2c1.8-0.7,3.5-1.1,5-1.1c2.9,0,4.8,1,6.5,3.5
				c2.2-0.8,3.6-1.4,5.8-2.2c2.5-0.9,3.6-1.2,5.4-1.2c2.7,0,4.9,0.9,6.5,2.5c1.7,1.9,2.3,3.8,2.3,7.4v15.9l5.2,2.2v1.7H139.4z"/>
			<path class="st1" d="M165.3,44.8c-0.1,3.2,0.4,5.9,2.3,8.3c2.2,2.7,5.2,3.6,8.7,3.6c1.9,0,3.8-0.3,5.7-0.7l1.2-0.2l0.5,2.3
				l-1.8,0.6c-1.9,0.6-6.2,2-10,2c-3.9,0-7.9-1.2-10.5-4.1c-1.2-1.2-3.7-4.6-3.7-10.5c0-3.6,1-8.6,5-12.2c1.6-1.5,4.6-3.5,9.5-3.5
				c2.5,0,11.3,0.5,11.8,11.9l0.1,2.5H165.3z M176.6,41.3c0-7.1-2.8-8.2-5.1-8.2c-2.1,0-5.7,0.8-6.1,8.3l-0.1,1L176.6,41.3z"/>
			<path class="st1" d="M213.3,58.2c-1.5,0.5-2.9,1-3.8,1.2c-2,0.6-5,1.3-7.8,1.3c-4.5,0-8.3-1.9-10.6-4.6c-1.9-2.3-3.3-5.7-3.3-9.7
				c0-5,2-8.9,4.4-11.3c3.1-3.1,7.6-4.6,12.2-4.6c2.7,0,5.9,0.6,8.6,1.5v6.6h-4.7l-2.7-5.5c-2.9,0.1-5.4,1-7.3,3.2
				c-1.7,1.9-2.9,4.9-2.9,8.8c0,4,1.2,6.7,2.8,8.5c2.4,2.7,5.8,3.1,8.3,3.1c1.3,0,3.1-0.2,6.2-0.8L213.3,58.2z"/>
			<path class="st1" d="M235,60.1v-1.6l4.2-2.3V41.9c0-2.1-0.2-4.2-1.7-5.6c-1.5-1.4-3.6-1.5-4.8-1.5c-1.5,0-3.3,0.2-4.9,0.4v20.9
				l4.2,2.2v1.7h-16.6v-1.6l5.1-2.3V25.5l-5.3-1.6v-1.6l12.6-2.5v13.6c5.9-2.4,8-3.1,10.2-3.1c2.7,0,4.9,1.1,6.2,2.6
				c2.2,2.3,2.2,5.2,2.2,7.5v15.7l5.1,2.2v1.7H235z"/>
			<path class="st1" d="M282.5,58.5c-1.1,0.4-2,0.7-4.1,1.3c-1,0.3-2.4,0.7-4.1,0.7c-1,0-2-0.1-2.8-1c-0.6-0.6-0.9-1.5-1.1-1.9
				l-0.2,0.1c-0.3,0.2-0.7,0.4-1.4,0.7c-0.5,0.2-0.7,0.3-1.4,0.6c-1.5,0.7-2.9,1.4-5.5,1.4c-5.4,0-8.6-3.4-8.6-7.5
				c0-5.4,5-6.7,6.6-7.1c0.6-0.1,2.9-0.6,8.6-1.2l1.8-0.2v-6.7c0-1.4-0.1-2.9-1.3-3.9c-0.5-0.3-1.7-1-5.4-0.7l-2.7,5.3h-4.8v-5.8
				c2.2-0.5,4.4-1.2,7.2-1.8c1.5-0.3,3.1-0.6,4.9-0.6c2.9,0,4.8,0.7,6.2,1.5c2.8,1.6,3,3.8,3,5.9v16.9c0,0.5,0.1,0.7,0.3,0.9
				c0.3,0.2,0.8,0.3,1.1,0.4l3.7,1V58.5z M270.3,46.6l-4.6,0.8c-1,0.2-2.3,0.5-3.2,1.1c-1.3,0.8-1.6,2.1-1.6,3.5
				c0,1.6,0.6,2.6,1.2,3.2c1.2,1.2,3,1.4,4.2,1.4c0.7,0,1.9-0.1,3.5-0.5l0.5-0.1V46.6z"/>
			<path class="st1" d="M303.6,60.1v-1.6l4.2-2.3V41.9c0-2.1-0.2-4.2-1.7-5.6c-1.5-1.4-3.6-1.5-4.8-1.5c-1.5,0-3.3,0.2-4.9,0.4v20.9
				l4.2,2.2v1.7H284v-1.6l5.1-2.3V35.8l-5.3-1.6v-1.6l12.6-2.5v3.3c5.9-2.4,8-3.1,10.2-3.1c2.7,0,4.9,1.1,6.2,2.6
				c2.2,2.3,2.2,5.2,2.2,7.5v15.7l5.1,2.2v1.7H303.6z"/>
			<path class="st1" d="M321.6,60.1v-1.6l5.1-2.3V35.7l-5.1-1.6v-1.6l12.4-2.4v26l5.1,2.2v1.7H321.6z"/>
			<path class="st1" d="M366.7,58.2c-1.5,0.5-2.9,1-3.8,1.2c-2,0.6-5,1.3-7.8,1.3c-4.5,0-8.3-1.9-10.6-4.6c-1.9-2.3-3.3-5.7-3.3-9.7
				c0-5,2-8.9,4.4-11.3c3.1-3.1,7.6-4.6,12.2-4.6c2.7,0,5.9,0.6,8.6,1.5v6.6h-4.7l-2.7-5.5c-2.9,0.1-5.4,1-7.3,3.2
				c-1.7,1.9-2.9,4.9-2.9,8.8c0,4,1.2,6.7,2.8,8.5c2.4,2.7,5.8,3.1,8.3,3.1c1.3,0,3.1-0.2,6.2-0.8L366.7,58.2z"/>
		</g>
		<path class="st0" d="M330.3,25.2c-3.1,0-4.5-1.1-4.5-3.5c0-2.3,1.4-3.5,4.5-3.5c3.1,0,4.5,1.1,4.5,3.3
			C334.8,24.1,333.4,25.2,330.3,25.2z"/>
	</g>
	<g>
		<path class="st2" d="M79.8,84.4h0.9l5.7,12.2h-1l-1.5-3.4h-7.2l-1.5,3.4h-0.9L79.8,84.4z M83.4,92.4l-3.2-7l-3.2,7H83.4z"/>
		<path class="st2" d="M88.7,87.7h0.9v2c0.8-1.2,1.9-2.2,3.6-2.2c2.1,0,4.3,1.7,4.3,4.6c0,2.9-2.2,4.6-4.3,4.6c-1.8,0-2.9-1-3.6-2.1
			v4.7h-0.9V87.7z M96.6,92.2c0-2.3-1.6-3.8-3.5-3.8c-1.8,0-3.6,1.5-3.6,3.8c0,2.3,1.8,3.8,3.6,3.8C95.1,96,96.6,94.6,96.6,92.2z"/>
		<path class="st2" d="M100.2,87.7h0.9v2c0.8-1.2,1.9-2.2,3.6-2.2c2.1,0,4.3,1.7,4.3,4.6c0,2.9-2.2,4.6-4.3,4.6
			c-1.8,0-2.9-1-3.6-2.1v4.7h-0.9V87.7z M108.1,92.2c0-2.3-1.6-3.8-3.5-3.8c-1.8,0-3.6,1.5-3.6,3.8c0,2.3,1.8,3.8,3.6,3.8
			C106.5,96,108.1,94.6,108.1,92.2z"/>
		<path class="st2" d="M111.8,83.9h0.9v12.7h-0.9V83.9z"/>
		<path class="st2" d="M116,84.3h1.1v1.2H116V84.3z M116.1,87.7h0.9v8.8h-0.9V87.7z"/>
		<path class="st2" d="M119.7,92.1c0-2.6,1.8-4.6,4.2-4.6c2.5,0,4.1,2,4.1,4.6c0,0.2,0,0.2,0,0.3h-7.3c0.2,2.2,1.7,3.5,3.5,3.5
			c1.4,0,2.3-0.6,3-1.4l0.6,0.5c-0.9,1-2,1.7-3.7,1.7C121.7,96.8,119.7,94.9,119.7,92.1z M127,91.7c-0.1-1.8-1.1-3.4-3.2-3.4
			c-1.8,0-3.1,1.5-3.3,3.4H127z"/>
		<path class="st2" d="M129.8,92.2c0-2.9,2.2-4.6,4.3-4.6c1.8,0,2.9,1,3.6,2.1v-5.7h0.9v12.7h-0.9v-2c-0.8,1.2-1.9,2.2-3.6,2.2
			C132,96.8,129.8,95.1,129.8,92.2z M137.8,92.1c0-2.3-1.8-3.8-3.6-3.8c-1.9,0-3.5,1.4-3.5,3.8c0,2.3,1.6,3.8,3.5,3.8
			C136.1,96,137.8,94.4,137.8,92.1z"/>
		<path class="st2" d="M147.3,84.4h5c2.4,0,3.9,1.2,3.9,3c0,1.6-1.1,2.5-2.1,2.9c1.5,0.4,2.7,1.2,2.7,2.9c0,2-1.7,3.3-4.4,3.3h-5.3
			V84.4z M152.2,90c1.8,0,3.1-0.9,3.1-2.5c0-1.3-1.1-2.2-3-2.2h-4.1V90H152.2z M152.6,95.8c2.1,0,3.4-1,3.4-2.5
			c0-1.5-1.3-2.4-3.7-2.4h-4.1v4.9H152.6z"/>
		<path class="st2" d="M159.4,93.2v-5.4h0.9V93c0,1.8,1,3,2.8,3c1.7,0,3.1-1.3,3.1-3.2v-5.1h0.9v8.8h-0.9v-1.6
			c-0.6,1-1.6,1.9-3.2,1.9C160.7,96.8,159.4,95.3,159.4,93.2z"/>
		<path class="st2" d="M169.5,95.5l0.5-0.7c1,0.7,2,1.2,3.2,1.2c1.2,0,2.1-0.7,2.1-1.7c0-1-1.1-1.4-2.3-1.8c-1.4-0.4-3-0.9-3-2.5
			c0-1.4,1.2-2.4,2.9-2.4c1.1,0,2.3,0.4,3.1,1l-0.5,0.7c-0.8-0.5-1.8-0.9-2.7-0.9c-1.2,0-2,0.7-2,1.6c0,1,1.2,1.4,2.5,1.7
			c1.4,0.4,2.9,0.9,2.9,2.5c0,1.6-1.4,2.6-3.1,2.6C171.8,96.8,170.4,96.2,169.5,95.5z"/>
		<path class="st2" d="M178.9,84.3h1.1v1.2h-1.1V84.3z M179,87.7h0.9v8.8H179V87.7z"/>
		<path class="st2" d="M183.2,87.7h0.9v1.6c0.6-1,1.6-1.9,3.2-1.9c2.2,0,3.5,1.5,3.5,3.6v5.4h-0.9v-5.3c0-1.8-1-3-2.8-3
			c-1.7,0-3.1,1.3-3.1,3.2v5.1h-0.9V87.7z"/>
		<path class="st2" d="M193.2,92.1c0-2.6,1.8-4.6,4.2-4.6c2.5,0,4.1,2,4.1,4.6c0,0.2,0,0.2,0,0.3h-7.3c0.2,2.2,1.7,3.5,3.5,3.5
			c1.4,0,2.3-0.6,3-1.4l0.6,0.5c-0.9,1-2,1.7-3.7,1.7C195.2,96.8,193.2,94.9,193.2,92.1z M200.6,91.7c-0.1-1.8-1.1-3.4-3.2-3.4
			c-1.8,0-3.1,1.5-3.3,3.4H200.6z"/>
		<path class="st2" d="M203.2,95.5l0.5-0.7c1,0.7,2,1.2,3.2,1.2c1.2,0,2.1-0.7,2.1-1.7c0-1-1.1-1.4-2.3-1.8c-1.4-0.4-3-0.9-3-2.5
			c0-1.4,1.2-2.4,2.9-2.4c1.1,0,2.3,0.4,3.1,1l-0.5,0.7c-0.8-0.5-1.8-0.9-2.7-0.9c-1.2,0-2,0.7-2,1.6c0,1,1.2,1.4,2.5,1.7
			c1.4,0.4,2.9,0.9,2.9,2.5c0,1.6-1.4,2.6-3.1,2.6C205.6,96.8,204.1,96.2,203.2,95.5z"/>
		<path class="st2" d="M211.7,95.5l0.5-0.7c1,0.7,2,1.2,3.2,1.2c1.2,0,2.1-0.7,2.1-1.7c0-1-1.1-1.4-2.3-1.8c-1.4-0.4-3-0.9-3-2.5
			c0-1.4,1.2-2.4,2.9-2.4c1.1,0,2.3,0.4,3.1,1l-0.5,0.7c-0.8-0.5-1.8-0.9-2.7-0.9c-1.2,0-2,0.7-2,1.6c0,1,1.2,1.4,2.5,1.7
			c1.4,0.4,2.9,0.9,2.9,2.5c0,1.6-1.4,2.6-3.1,2.6C214,96.8,212.6,96.2,211.7,95.5z"/>
		<path class="st2" d="M225.7,94.8l0.6-0.7c1.3,1.2,2.6,1.8,4.4,1.8c1.8,0,3.1-1,3.1-2.4c0-1.3-0.7-2-3.4-2.6
			c-2.9-0.6-4.1-1.6-4.1-3.5c0-1.8,1.6-3.2,3.9-3.2c1.8,0,2.9,0.5,4.2,1.5l-0.6,0.7c-1.1-1-2.3-1.4-3.6-1.4c-1.8,0-3,1-3,2.3
			c0,1.3,0.7,2.1,3.5,2.7c2.8,0.6,4,1.6,4,3.4c0,2-1.7,3.3-4,3.3C228.6,96.8,227.1,96.1,225.7,94.8z"/>
		<path class="st2" d="M236.8,92.2c0-2.5,1.9-4.6,4.6-4.6c2.6,0,4.5,2.1,4.5,4.6c0,2.5-1.9,4.6-4.6,4.6
			C238.7,96.8,236.8,94.7,236.8,92.2z M244.9,92.2c0-2.1-1.6-3.8-3.6-3.8c-2,0-3.6,1.7-3.6,3.8c0,2.1,1.6,3.8,3.6,3.8
			C243.3,96,244.9,94.3,244.9,92.2z"/>
		<path class="st2" d="M248.6,83.9h0.9v12.7h-0.9V83.9z"/>
		<path class="st2" d="M252.6,93.2v-5.4h0.9V93c0,1.8,1,3,2.8,3c1.7,0,3.1-1.3,3.1-3.2v-5.1h0.9v8.8h-0.9v-1.6
			c-0.6,1-1.6,1.9-3.2,1.9C253.9,96.8,252.6,95.3,252.6,93.2z"/>
		<path class="st2" d="M263.9,94.3v-5.8h-1.3v-0.8h1.3v-2.8h0.9v2.8h3.1v0.8h-3.1v5.7c0,1.3,0.7,1.7,1.8,1.7c0.4,0,0.8-0.1,1.3-0.3
			v0.8c-0.5,0.2-0.9,0.3-1.4,0.3C265,96.7,263.9,96,263.9,94.3z"/>
		<path class="st2" d="M270.4,84.3h1.1v1.2h-1.1V84.3z M270.5,87.7h0.8v8.8h-0.8V87.7z"/>
		<path class="st2" d="M274.1,92.2c0-2.5,1.9-4.6,4.6-4.6c2.6,0,4.5,2.1,4.5,4.6c0,2.5-1.9,4.6-4.6,4.6
			C276,96.8,274.1,94.7,274.1,92.2z M282.3,92.2c0-2.1-1.6-3.8-3.6-3.8c-2,0-3.6,1.7-3.6,3.8c0,2.1,1.6,3.8,3.6,3.8
			C280.6,96,282.3,94.3,282.3,92.2z"/>
		<path class="st2" d="M285.8,87.7h0.9v1.6c0.6-1,1.6-1.9,3.2-1.9c2.2,0,3.5,1.5,3.5,3.6v5.4h-0.9v-5.3c0-1.8-1-3-2.8-3
			c-1.7,0-3.1,1.3-3.1,3.2v5.1h-0.9V87.7z"/>
		<path class="st2" d="M295.7,95.5l0.5-0.7c1,0.7,2,1.2,3.2,1.2c1.2,0,2.1-0.7,2.1-1.7c0-1-1.1-1.4-2.3-1.8c-1.4-0.4-3-0.9-3-2.5
			c0-1.4,1.2-2.4,2.9-2.4c1.1,0,2.3,0.4,3.1,1l-0.5,0.7c-0.8-0.5-1.8-0.9-2.7-0.9c-1.2,0-2,0.7-2,1.6c0,1,1.2,1.4,2.5,1.7
			c1.4,0.4,2.9,0.9,2.9,2.5c0,1.6-1.4,2.6-3.1,2.6C298,96.8,296.6,96.2,295.7,95.5z"/>
	</g>
	<polygon class="st0" points="117.1,2.6 117.1,1 417.2,0 418.9,2.8 376.5,24.8 375.3,23.2 399,6 	"/>
</g>
</svg>
